<?xml version="1.0" encoding="utf-8"?>
<!-- Generator: Adobe Illustrator 19.0.0, SVG Export Plug-In . SVG Version: 6.00 Build 0)  -->
<svg version="1.1" id="Layer_1" focusable="false" xmlns="http://www.w3.org/2000/svg" xmlns:xlink="http://www.w3.org/1999/xlink"
	 x="0px" y="0px" viewBox="274 -274 612 612" style="enable-background:new 274 -274 612 612;" xml:space="preserve">
<style type="text/css">
	.st0{fill:#110955;}
</style>
<title>Bootstrap</title>
<g>
	<path class="st0" d="M580-261.7c38.1,0,83.2,4.5,124.9,10.2c81.8,11.2,146.2,75.6,157.4,157.4c5.7,41.8,10.2,86.8,10.2,124.9
		S868,114,862.3,155.7c-11.2,81.8-75.6,146.2-157.4,157.4c-41.8,5.7-86.8,10.2-124.9,10.2s-83.2-4.5-124.9-10.2
		c-81.8-11.2-146.2-75.6-157.4-157.4C292,114,287.5,68.9,287.5,30.8s4.5-83.2,10.2-124.9c11.2-81.8,75.6-146.2,157.4-157.4
		C496.8-257.2,541.9-261.7,580-261.7 M580-274c-33.8,0-76.4,3.5-126.6,10.3c-87,11.9-156,80.9-167.9,167.9
		C278.7-45.6,275.2-3,275.2,30.8c0,33.8,3.5,76.4,10.3,126.6c11.9,87,80.9,156,167.9,167.9c50.2,6.8,92.8,10.3,126.6,10.3
		s76.4-3.5,126.6-10.3c87-11.9,156-80.9,167.9-167.9c6.8-50.2,10.3-92.8,10.3-126.6c0-33.8-3.5-76.4-10.3-126.6
		c-11.9-87-80.9-156-167.9-167.9C656.4-270.5,613.8-274,580-274L580-274z"/>
	<polygon class="st0" points="584.4,35.2 575.6,26.5 735,-133.2 743.7,-124.6 	"/>
	
		<rect x="547" y="104.4" transform="matrix(0.7071 0.7071 -0.7071 0.7071 271.3586 -434.0743)" class="st0" width="225.3" height="12.3"/>
	<polygon class="st0" points="425.1,194 416.4,185.3 575.7,26.5 584.3,35.2 	"/>
	<rect x="803.9" y="145.9" class="st0" width="12.3" height="115"/>
	<rect x="695" y="254.8" class="st0" width="115" height="12.3"/>
	<polygon class="st0" points="690.7,265.3 575.6,149.8 584.4,141.1 699.4,256.6 	"/>
	
		<rect x="670.9" y="82.1" transform="matrix(0.7071 0.7071 -0.7071 0.7071 282.8016 -506.1999)" class="st0" width="163" height="12.3"/>
	
		<rect x="746.2" y="-108.2" transform="matrix(0.7071 0.7071 -0.7071 0.7071 201.3521 -539.8528)" class="st0" width="12.3" height="162.7"/>
	<rect x="803.7" y="-199.3" class="st0" width="12.3" height="114.9"/>
	
		<rect x="516.1" y="121.6" transform="matrix(0.7071 0.7071 -0.7071 0.7071 296.6408 -309.8012)" class="st0" width="12.3" height="163.2"/>
	<rect x="349.7" y="254.7" class="st0" width="114.9" height="12.3"/>
	<rect x="694.6" y="-205.4" class="st0" width="115.5" height="12.3"/>
	
		<rect x="573.4" y="-246.9" transform="matrix(0.7071 0.7071 -0.7071 0.7071 110.1845 -434.4974)" class="st0" width="12.3" height="325.3"/>
	<polygon class="st0" points="491.3,320.8 459.2,263.9 469.9,257.9 502,314.7 	"/>
	<polygon class="st0" points="668.9,321.1 658.1,315.1 689.7,258 700.4,263.9 	"/>
	
		<rect x="532.2" y="135.9" transform="matrix(0.9002 0.4355 -0.4355 0.9002 154.5751 -211.3038)" class="st0" width="12.3" height="191.4"/>
	
		<rect x="525.9" y="225.6" transform="matrix(0.4354 0.9002 -0.9002 0.4354 559.684 -428.8578)" class="st0" width="191.8" height="12.3"/>
	
		<rect x="534.1" y="237.1" transform="matrix(0.7071 0.7071 -0.7071 0.7071 336.5884 -326.0757)" class="st0" width="55.7" height="12.3"/>
	
		<rect x="594.1" y="218" transform="matrix(0.7071 0.7071 -0.7071 0.7071 348.5721 -352.8468)" class="st0" width="12.3" height="52.6"/>
	<rect x="575.5" y="263" class="st0" width="12.3" height="60.4"/>
	
		<rect x="832" y="97.5" transform="matrix(0.4957 0.8685 -0.8685 0.4957 535.4493 -662.4377)" class="st0" width="12.3" height="64.7"/>
	
		<rect x="806" y="-75" transform="matrix(0.8814 0.4724 -0.4724 0.8814 66.9547 -404.4099)" class="st0" width="65.7" height="12.3"/>
	
		<rect x="691.3" y="66" transform="matrix(0.8925 0.451 -0.451 0.8925 116.7501 -345.688)" class="st0" width="184.9" height="12.3"/>
	
		<rect x="778.3" y="-104.7" transform="matrix(0.4492 0.8934 -0.8934 0.4492 421.8893 -707.2155)" class="st0" width="12.3" height="186.5"/>
	<polygon class="st0" points="810,38.7 809.7,26.4 872.3,24.7 872.7,36.9 	"/>
	<polygon class="st0" points="806,37.3 764.6,3.8 772.4,-5.7 813.7,27.8 	"/>
	<polygon class="st0" points="772.3,69.3 764.7,59.6 806.1,27.7 813.6,37.4 	"/>
	
		<rect x="647.1" y="-234" transform="matrix(0.4667 0.8844 -0.8844 0.4667 160.8452 -722.4763)" class="st0" width="64.7" height="12.3"/>
	<rect x="733" y="190.3" class="st0" width="12.3" height="114.7"/>
	<rect x="739.1" y="184.2" class="st0" width="114.8" height="12.3"/>
	<rect x="739.4" y="-135" class="st0" width="115" height="12.3"/>
	<rect x="733.2" y="-243.6" class="st0" width="12.3" height="114.7"/>
	<rect x="414.6" y="189.7" class="st0" width="12.3" height="115"/>
	<polygon class="st0" points="585.5,-82 574.5,-87.4 658.9,-259.2 669.9,-253.8 	"/>
	<rect x="573.9" y="-261.7" class="st0" width="12.3" height="62.5"/>
	
		<rect x="575.6" y="-191.1" transform="matrix(0.827 0.5622 -0.5622 0.827 2.251392e-002 -369.9045)" class="st0" width="51" height="12.3"/>
	<polygon class="st0" points="574.5,-82 491.1,-253.9 502.1,-259.3 585.5,-87.3 	"/>
	<polygon class="st0" points="541.8,-165.5 534.8,-175.6 576.5,-204.3 583.5,-194.2 	"/>
	<rect x="349.8" y="-205.4" class="st0" width="114.7" height="12.3"/>
	<rect x="458.4" y="-199.3" class="st0" width="12.3" height="230"/>
	<polygon class="st0" points="469.9,-196.3 459.2,-202.3 491.2,-259.6 502,-253.6 	"/>
	<rect x="305.7" y="183.5" class="st0" width="115.1" height="12.3"/>
	
		<rect x="461.9" y="-191.1" transform="matrix(0.932 0.3624 -0.3624 0.932 -32.9261 -194.3125)" class="st0" width="79.1" height="12.3"/>
	<rect x="464.6" y="-90.8" class="st0" width="115.4" height="12.3"/>
	
		<rect x="452.6" y="-61.9" transform="matrix(0.7071 0.7071 -0.7071 0.7071 105.0768 -365.2684)" class="st0" width="81.6" height="12.3"/>
	
		<rect x="497.4" y="-182.9" transform="matrix(0.7774 0.629 -0.629 0.7774 31.8129 -345.1392)" class="st0" width="12.3" height="110.5"/>
	
		<rect x="401.2" y="-223" transform="matrix(0.7071 0.7071 -0.7071 0.7071 18.8757 -329.6353)" class="st0" width="12.3" height="161.9"/>
	
		<rect x="337.9" y="-176.7" transform="matrix(0.7071 0.7071 -0.7071 0.7071 -9.7491 -317.6063)" class="st0" width="81.1" height="12.3"/>
	<rect x="580" y="24.3" class="st0" width="121.2" height="12.3"/>
	<rect x="573.9" y="30.9" class="st0" width="12.3" height="114.6"/>
	<rect x="458.4" y="30.8" class="st0" width="12.3" height="114.7"/>
	<rect x="344" y="-84.8" class="st0" width="12.3" height="345.7"/>
	<rect x="344" y="-199.3" class="st0" width="12.3" height="114.4"/>
	
		<rect x="279.2" y="-4.9" transform="matrix(0.7071 0.7071 -0.7071 0.7071 94.7431 -226.246)" class="st0" width="82.6" height="12.3"/>
	
		<rect x="314.2" y="18.3" transform="matrix(0.7071 0.7071 -0.7071 0.7071 136.0585 -209.0441)" class="st0" width="12.3" height="82.8"/>
	<rect x="349.7" y="24.3" class="st0" width="114.9" height="12.3"/>
	<polygon class="st0" points="417,194.5 287.3,93.8 294.9,84.1 424.5,184.8 	"/>
	<polygon class="st0" points="295.5,-23.5 287,-32.4 345.9,-89.2 354.4,-80.4 	"/>
</g>
</svg>
