<?xml version="1.0" encoding="utf-8"?>
<!-- Generator: Adobe Illustrator 19.0.0, SVG Export Plug-In . SVG Version: 6.00 Build 0)  -->
<svg version="1.1" id="Layer_1" focusable="false" xmlns="http://www.w3.org/2000/svg" xmlns:xlink="http://www.w3.org/1999/xlink"
	 x="0px" y="0px" viewBox="1161 -274 2386 612" style="enable-background:new 1161 -274 2386 612;" xml:space="preserve">
<style type="text/css">
	.st0{fill:#110955;}
	.st1{enable-background:new    ;}
</style>
<title>Bootstrap</title>
<g>
	<g>
		<g>
			<path class="st0" d="M1464,333.3c-34,0-76.9-3.5-127.5-10.4c-84.6-11.5-151.8-78.7-163.4-163.4c-6.9-50.5-10.4-93.4-10.4-127.5
				c0-34,3.5-76.9,10.4-127.5c11.6-84.6,78.7-151.8,163.4-163.4c50.6-6.9,93.5-10.4,127.5-10.4s76.9,3.5,127.5,10.4
				c84.6,11.5,151.8,78.7,163.4,163.4l0,0c6.9,50.7,10.4,93.6,10.4,127.5s-3.5,76.8-10.4,127.5c-11.5,84.6-78.7,151.8-163.4,163.4
				C1540.9,329.8,1498,333.3,1464,333.3z M1464-261.2c-33.7,0-76.2,3.5-126.4,10.3c-81.1,11.1-145.4,75.4-156.5,156.5
				c-6.9,50.2-10.4,92.7-10.4,126.4s3.5,76.2,10.3,126.4c11.1,81.1,75.4,145.4,156.5,156.5c50.2,6.9,92.8,10.3,126.4,10.3
				s76.2-3.5,126.4-10.3c81.1-11.1,145.4-75.4,156.5-156.5c6.8-50.3,10.3-92.9,10.3-126.4s-3.5-76.1-10.3-126.4
				c-11.1-81.1-75.4-145.4-156.5-156.5C1540.2-257.8,1497.7-261.2,1464-261.2z"/>
		</g>
		<g>
			<path class="st0" d="M1464,36.1c-1,0-2.1-0.4-2.8-1.2c-1.6-1.6-1.6-4.1,0-5.7l162-162.4c1.5-1.5,4.1-1.6,5.7,0s1.6,4.1,0,5.7
				l-162,162.4C1466,35.7,1465,36.1,1464,36.1z"/>
		</g>
		<g>
			<path class="st0" d="M1625.9,198c-1,0-2.1-0.4-2.8-1.2L1461.2,34.9c-1.6-1.6-1.6-4.1,0-5.7s4.1-1.6,5.7,0l161.8,161.9
				c1.6,1.6,1.6,4.1,0,5.7C1627.9,197.6,1626.9,198,1625.9,198z"/>
		</g>
		<g>
			<path class="st0" d="M1302.1,197.5c-1,0-2.1-0.4-2.8-1.2c-1.6-1.6-1.5-4.1,0-5.7l161.9-161.3c1.6-1.6,4.1-1.6,5.7,0
				s1.5,4.1,0,5.7L1305,196.3C1304.2,197.1,1303.1,197.5,1302.1,197.5z"/>
		</g>
		<g>
			<path class="st0" d="M1697.8,269.9c-2.2,0-4-1.8-4-4V149c0-2.2,1.8-4,4-4s4,1.8,4,4v116.9C1701.8,268.1,1700,269.9,1697.8,269.9z
				"/>
		</g>
		<g>
			<path class="st0" d="M1697.8,269.9h-116.9c-2.2,0-4-1.8-4-4s1.8-4,4-4h116.9c2.2,0,4,1.8,4,4S1700,269.9,1697.8,269.9z"/>
		</g>
		<g>
			<path class="st0" d="M1580.9,269.9c-1,0-2.1-0.4-2.8-1.2l-117-117.3c-1.6-1.6-1.5-4.1,0-5.7c1.6-1.6,4.1-1.5,5.7,0l116.9,117.4
				c1.6,1.6,1.5,4.1,0,5.7C1582.9,269.5,1581.9,269.9,1580.9,269.9z"/>
		</g>
		<g>
			<path class="st0" d="M1697.8,153c-1,0-2.1-0.4-2.8-1.2L1577.8,34.7c-1.6-1.6-1.6-4.1,0-5.7s4.1-1.6,5.7,0l117.1,117.1
				c1.6,1.6,1.6,4.1,0,5.7C1699.8,152.6,1698.8,153,1697.8,153z"/>
		</g>
		<g>
			<path class="st0" d="M1580.7,35.9c-1,0-2.1-0.4-2.8-1.2c-1.6-1.6-1.6-4.1,0-5.7l116.8-116.9c1.6-1.6,4.1-1.6,5.7,0s1.6,4.1,0,5.7
				L1583.5,34.7C1582.7,35.5,1581.7,35.9,1580.7,35.9z"/>
		</g>
		<g>
			<path class="st0" d="M1697.6-81c-2.2,0-4-1.8-4-4v-116.7c0-2.2,1.8-4,4-4s4,1.8,4,4V-85C1701.6-82.8,1699.8-81,1697.6-81z"/>
		</g>
		<g>
			<path class="st0" d="M1346.7,269.9c-1,0-2.1-0.4-2.8-1.2c-1.6-1.6-1.6-4.1,0-5.7l117.3-117.3c1.6-1.6,4.1-1.6,5.7,0
				s1.6,4.1,0,5.7l-117.4,117.3C1348.7,269.5,1347.7,269.9,1346.7,269.9z"/>
		</g>
		<g>
			<path class="st0" d="M1346.7,269.9h-116.8c-2.2,0-4-1.8-4-4s1.8-4,4-4h116.8c2.2,0,4,1.8,4,4S1348.9,269.9,1346.7,269.9z"/>
		</g>
		<g>
			<path class="st0" d="M1697.9-197.8h-117.5c-2.2,0-4-1.8-4-4s1.8-4,4-4h117.4c2.2,0,4,1.8,4,4
				C1701.9-199.6,1700.1-197.8,1697.9-197.8z"/>
		</g>
		<g>
			<path class="st0" d="M1346.7,36c-1,0-2.1-0.4-2.8-1.2c-1.6-1.6-1.6-4.1,0-5.7l233.8-233.8c1.6-1.6,4.1-1.6,5.7,0s1.6,4.1,0,5.7
				L1349.5,34.8C1348.7,35.6,1347.7,36,1346.7,36z"/>
		</g>
		<g>
			<path class="st0" d="M1379.3,327.7c-1.4,0-2.8-0.7-3.5-2l-32.6-57.8c-1.1-1.9-0.4-4.4,1.5-5.5c2-1.1,4.4-0.4,5.5,1.5l32.6,57.8
				c1.1,1.9,0.4,4.4-1.5,5.5C1380.6,327.5,1379.9,327.7,1379.3,327.7z"/>
		</g>
		<g>
			<path class="st0" d="M1548.8,328c-0.7,0-1.3-0.2-1.9-0.5c-1.9-1.1-2.7-3.5-1.6-5.4l32.1-58.1c1.1-1.9,3.6-2.6,5.4-1.6
				c1.9,1.1,2.7,3.5,1.6,5.5l-32.1,58.1C1551.6,327.2,1550.2,328,1548.8,328z"/>
		</g>
		<g>
			<path class="st0" d="M1379.3,327.7c-0.6,0-1.2-0.1-1.7-0.4c-2-1-2.8-3.4-1.9-5.4l84.7-175.1c1-2,3.4-2.8,5.4-1.9
				c2,1,2.8,3.4,1.9,5.4L1383,325.4C1382.2,326.8,1380.8,327.7,1379.3,327.7z"/>
		</g>
		<g>
			<path class="st0" d="M1548.8,328c-1.5,0-2.9-0.8-3.6-2.3l-84.8-175.4c-1-2-0.1-4.4,1.9-5.4s4.4-0.1,5.4,1.9l84.8,175.4
				c1,2,0.1,4.4-1.9,5.4C1550,327.9,1549.4,328,1548.8,328z"/>
		</g>
		<g>
			<path class="st0" d="M1465.6,272c-1,0-2.1-0.4-2.8-1.2l-40-40c-1.6-1.6-1.6-4.1,0-5.7c1.6-1.6,4.1-1.6,5.7,0l40,40
				c1.6,1.6,1.6,4.1,0,5.7C1467.7,271.6,1466.6,272,1465.6,272z"/>
		</g>
		<g>
			<path class="st0" d="M1465.6,272c-1,0-2.1-0.4-2.8-1.2c-1.6-1.6-1.6-4.1,0-5.7l37.8-37.8c1.6-1.6,4.1-1.6,5.7,0s1.6,4.1,0,5.7
				l-37.8,37.8C1467.7,271.6,1466.6,272,1465.6,272z"/>
		</g>
		<g>
			<path class="st0" d="M1465.6,333.3c-2.2,0-4-1.8-4-4V268c0-2.2,1.8-4,4-4s4,1.8,4,4v61.3C1469.6,331.5,1467.8,333.3,1465.6,333.3
				z"/>
		</g>
		<g>
			<path class="st0" d="M1697.8,153c-1.4,0-2.7-0.7-3.5-2c-1.1-1.9-0.4-4.4,1.5-5.5l57.1-32.6c1.9-1.1,4.4-0.4,5.5,1.5
				s0.4,4.4-1.5,5.5l-57.1,32.6C1699.1,152.8,1698.5,153,1697.8,153z"/>
		</g>
		<g>
			<path class="st0" d="M1756.5-49.5c-0.6,0-1.3-0.2-1.9-0.5l-58.9-31.5c-2-1-2.7-3.5-1.7-5.4s3.5-2.7,5.4-1.6l58.9,31.6
				c2,1,2.7,3.5,1.7,5.4C1759.3-50.2,1757.9-49.5,1756.5-49.5z"/>
		</g>
		<g>
			<path class="st0" d="M1754.9,120.4c-0.6,0-1.2-0.1-1.8-0.4l-167.7-84.8c-2-1-2.8-3.4-1.8-5.4s3.4-2.8,5.4-1.8l167.7,84.8
				c2,1,2.8,3.4,1.8,5.4C1757.8,119.6,1756.4,120.4,1754.9,120.4z"/>
		</g>
		<g>
			<path class="st0" d="M1587.2,35.7c-1.5,0-2.9-0.8-3.6-2.2c-1-2-0.2-4.4,1.8-5.4l169.3-85.2c2-1,4.4-0.2,5.4,1.8s0.2,4.4-1.8,5.4
				L1589,35.2C1588.4,35.5,1587.8,35.7,1587.2,35.7z"/>
		</g>
		<g>
			<path class="st0" d="M1697.6,37.8c-2.2,0-4-1.7-4-3.9c-0.1-2.2,1.7-4.1,3.9-4.1l63.7-1.8h0.1c2.2,0,4,1.7,4,3.9
				c0.1,2.2-1.7,4.1-3.9,4.1L1697.6,37.8L1697.6,37.8z"/>
		</g>
		<g>
			<path class="st0" d="M1697.6,37.8c-0.9,0-1.8-0.3-2.5-0.9l-42-34.1c-1.7-1.4-2-3.9-0.6-5.6s3.9-2,5.6-0.6l42,34.1
				c1.7,1.4,2,3.9,0.6,5.6C1699.9,37.3,1698.7,37.8,1697.6,37.8z"/>
		</g>
		<g>
			<path class="st0" d="M1655.6,70.2c-1.2,0-2.4-0.5-3.2-1.6c-1.4-1.8-1-4.3,0.7-5.6l42-32.4c1.7-1.3,4.3-1,5.6,0.7
				c1.4,1.8,1,4.3-0.7,5.6l-42,32.4C1657.3,69.9,1656.4,70.2,1655.6,70.2z"/>
		</g>
		<g>
			<path class="st0" d="M1580.4-197.8c-1.4,0-2.8-0.8-3.5-2.1l-30.7-58.2c-1-2-0.3-4.4,1.7-5.4s4.4-0.3,5.4,1.7l30.7,58.2
				c1,2,0.3,4.4-1.7,5.4C1581.7-197.9,1581.1-197.8,1580.4-197.8z"/>
		</g>
		<g>
			<path class="st0" d="M1625.7,314.7c-2.2,0-4-1.8-4-4V194.1c0-2.2,1.8-4,4-4s4,1.8,4,4v116.6
				C1629.7,312.9,1627.9,314.7,1625.7,314.7z"/>
		</g>
		<g>
			<path class="st0" d="M1742.3,198.1h-116.6c-2.2,0-4-1.8-4-4s1.8-4,4-4h116.6c2.2,0,4,1.8,4,4
				C1746.4,196.3,1744.6,198.1,1742.3,198.1z"/>
		</g>
		<g>
			<path class="st0" d="M1742.8-126.3h-116.9c-2.2,0-4-1.8-4-4s1.8-4,4-4h116.9c2.2,0,4,1.8,4,4S1745-126.3,1742.8-126.3z"/>
		</g>
		<g>
			<path class="st0" d="M1625.9-126.3c-2.2,0-4-1.8-4-4v-116.6c0-2.2,1.8-4,4-4s4,1.8,4,4v116.6
				C1630-128.1,1628.2-126.3,1625.9-126.3z"/>
		</g>
		<g>
			<path class="st0" d="M1302.1,314.4c-2.2,0-4-1.8-4-4V193.5c0-2.2,1.8-4,4-4s4,1.8,4,4v116.9
				C1306.1,312.6,1304.3,314.4,1302.1,314.4z"/>
		</g>
		<g>
			<path class="st0" d="M1464-81.3c-0.6,0-1.2-0.1-1.8-0.4c-2-1-2.8-3.4-1.8-5.4l85.8-174.6c1-2,3.3-2.8,5.4-1.8
				c2,1,2.8,3.4,1.8,5.4l-85.8,174.5C1466.9-82.1,1465.5-81.3,1464-81.3z"/>
		</g>
		<g>
			<path class="st0" d="M1464-197.8c-2.2,0-4-1.8-4-4v-63.5c0-2.2,1.8-4,4-4s4,1.8,4,4v63.5C1468-199.6,1466.2-197.8,1464-197.8z"/>
		</g>
		<g>
			<path class="st0" d="M1506.9-168.6c-0.8,0-1.6-0.2-2.3-0.7l-42.9-29.2c-1.8-1.2-2.3-3.7-1.1-5.6c1.3-1.8,3.7-2.3,5.6-1.1
				l42.9,29.1c1.8,1.2,2.3,3.7,1.1,5.6C1509.4-169.2,1508.2-168.6,1506.9-168.6z"/>
		</g>
		<g>
			<path class="st0" d="M1464-81.3c-1.5,0-2.9-0.8-3.6-2.3l-84.8-174.7c-1-2-0.1-4.4,1.9-5.4s4.4-0.1,5.4,1.9l84.8,174.7
				c1,2,0.1,4.4-1.9,5.4C1465.2-81.4,1464.6-81.3,1464-81.3z"/>
		</g>
		<g>
			<path class="st0" d="M1421.6-168.6c-1.3,0-2.5-0.6-3.3-1.7c-1.3-1.8-0.8-4.3,1-5.6l42.4-29.1c1.8-1.3,4.3-0.8,5.6,1
				c1.3,1.8,0.8,4.3-1,5.6l-42.4,29.1C1423.2-168.9,1422.4-168.6,1421.6-168.6z"/>
		</g>
		<g>
			<path class="st0" d="M1346.7-197.8h-116.6c-2.2,0-4-1.8-4-4s1.8-4,4-4h116.6c2.2,0,4,1.8,4,4S1348.9-197.8,1346.7-197.8z"/>
		</g>
		<g>
			<path class="st0" d="M1346.7,36c-2.2,0-4-1.8-4-4v-233.8c0-2.2,1.8-4,4-4s4,1.8,4,4V32C1350.7,34.2,1348.9,36,1346.7,36z"/>
		</g>
		<g>
			<path class="st0" d="M1346.7-197.8c-0.7,0-1.3-0.2-2-0.5c-1.9-1.1-2.6-3.5-1.5-5.5l32.6-58.3c1.1-1.9,3.5-2.6,5.5-1.5
				c1.9,1.1,2.6,3.5,1.5,5.5l-32.6,58.3C1349.4-198.5,1348.1-197.8,1346.7-197.8z"/>
		</g>
		<g>
			<path class="st0" d="M1302.1,197.5h-116.9c-2.2,0-4-1.8-4-4s1.8-4,4-4h116.9c2.2,0,4,1.8,4,4S1304.3,197.5,1302.1,197.5z"/>
		</g>
		<g>
			<path class="st0" d="M1421.6-168.6c-0.5,0-1-0.1-1.5-0.3l-75-29.1c-2.1-0.8-3.1-3.1-2.3-5.2c0.8-2.1,3.1-3.1,5.2-2.3l75,29.1
				c2.1,0.8,3.1,3.1,2.3,5.2C1424.8-169.6,1423.2-168.6,1421.6-168.6z"/>
		</g>
		<g>
			<path class="st0" d="M1464-81.3h-117.3c-2.2,0-4-1.8-4-4s1.8-4,4-4H1464c2.2,0,4,1.8,4,4C1468-83.1,1466.2-81.3,1464-81.3z"/>
		</g>
		<g>
			<path class="st0" d="M1405.3-22.7c-1,0-2.1-0.4-2.8-1.2l-58.7-58.7c-1.6-1.6-1.6-4.1,0-5.7s4.1-1.6,5.7,0l58.7,58.7
				c1.6,1.6,1.6,4.1,0,5.7C1407.4-23,1406.4-22.7,1405.3-22.7z"/>
		</g>
		<g>
			<path class="st0" d="M1351-81.3c-0.9,0-1.8-0.3-2.5-0.9c-1.7-1.4-2-3.9-0.6-5.6l70.6-87.3c1.4-1.7,3.9-2,5.6-0.6s2,3.9,0.6,5.6
				l-70.6,87.3C1353.3-81.8,1352.2-81.3,1351-81.3z"/>
		</g>
		<g>
			<path class="st0" d="M1230.4-81.5c-1,0-2.1-0.4-2.8-1.2c-1.6-1.6-1.6-4.1,0-5.7l116.3-116.3c1.6-1.6,4.1-1.6,5.7,0s1.6,4.1,0,5.7
				L1233.2-82.6C1232.4-81.9,1231.4-81.5,1230.4-81.5z"/>
		</g>
		<g>
			<path class="st0" d="M1288.4-139.5c-1,0-2.1-0.4-2.8-1.2l-58.4-58.2c-1.6-1.6-1.6-4.1,0-5.7s4.1-1.6,5.7,0l58.3,58.3
				c1.6,1.6,1.6,4.1,0,5.7C1290.4-139.9,1289.4-139.5,1288.4-139.5z"/>
		</g>
		<g>
			<path class="st0" d="M1587.2,35.7H1464c-2.2,0-4-1.8-4-4s1.8-4,4-4h123.2c2.2,0,4,1.8,4,4S1589.4,35.7,1587.2,35.7z"/>
		</g>
		<g>
			<path class="st0" d="M1464,152.6c-2.2,0-4-1.8-4-4V32.1c0-2.2,1.8-4,4-4s4,1.8,4,4v116.5C1468,150.8,1466.2,152.6,1464,152.6z"/>
		</g>
		<g>
			<path class="st0" d="M1346.7,152.6c-2.2,0-4-1.8-4-4V32c0-2.2,1.8-4,4-4s4,1.8,4,4v116.6C1350.7,150.8,1348.9,152.6,1346.7,152.6
				z"/>
		</g>
		<g>
			<path class="st0" d="M1230.4,269.9c-2.2,0-4-1.8-4-4V-85.5c0-2.2,1.8-4,4-4s4,1.8,4,4v351.3
				C1234.4,268.1,1232.6,269.9,1230.4,269.9z"/>
		</g>
		<g>
			<path class="st0" d="M1230.4-81.5c-2.2,0-4-1.8-4-4v-116.3c0-2.2,1.8-4,4-4s4,1.8,4,4v116.3C1234.4-83.3,1232.6-81.5,1230.4-81.5
				z"/>
		</g>
		<g>
			<path class="st0" d="M1229.9,35.7c-1,0-2.1-0.4-2.8-1.2l-59.4-59.4c-1.6-1.6-1.6-4.1,0-5.7c1.6-1.6,4.1-1.6,5.7,0l59.3,59.4
				c1.6,1.6,1.6,4.1,0,5.7C1231.9,35.3,1230.9,35.7,1229.9,35.7z"/>
		</g>
		<g>
			<path class="st0" d="M1170.4,95.2c-1,0-2.1-0.4-2.8-1.2c-1.6-1.6-1.6-4.1,0-5.7l59.5-59.5c1.6-1.6,4.1-1.6,5.7,0s1.6,4.1,0,5.7
				L1173.3,94C1172.4,94.8,1171.4,95.2,1170.4,95.2z"/>
		</g>
		<g>
			<path class="st0" d="M1346.7,35.7h-116.8c-2.2,0-4-1.8-4-4s1.8-4,4-4h116.8c2.2,0,4,1.8,4,4S1348.9,35.7,1346.7,35.7z"/>
		</g>
		<g>
			<path class="st0" d="M1302.1,197.5c-0.9,0-1.7-0.3-2.5-0.8L1167.9,94.3c-1.7-1.4-2.1-3.9-0.7-5.6s3.9-2.1,5.6-0.7l131.8,102.3
				c1.7,1.4,2.1,3.9,0.7,5.6C1304.5,197,1303.3,197.5,1302.1,197.5z"/>
		</g>
		<g>
			<path class="st0" d="M1170.5-23.7c-1,0-2.1-0.4-2.9-1.2c-1.5-1.6-1.5-4.1,0.1-5.7l59.8-57.8c1.6-1.5,4.1-1.5,5.7,0.1
				c1.5,1.6,1.5,4.1-0.1,5.7l-59.8,57.8C1172.6-24.1,1171.5-23.7,1170.5-23.7z"/>
		</g>
	</g>
	<g class="st1">
		<path class="st0" d="M2098.5,26v60h-7.4l-0.4-21.4c-3.3,7.4-8.6,13.2-15.7,17.2c-7.1,4-16,6-26.5,6c-11.1,0-20.9-2.6-29.3-7.7
			s-14.8-12.5-19.3-22s-6.8-20.7-6.8-33.4c0-12.8,2.3-23.9,7-33.4c4.6-9.5,11.2-16.9,19.6-22s18.2-7.7,29.4-7.7
			c12.5,0,22.7,2.5,30.7,7.4c7.9,5,13.9,12.5,17.8,22.7l-8.5,4.5c-2.9-8.5-7.6-15-14.4-19.4c-6.8-4.4-15.3-6.6-25.5-6.6
			c-9.2,0-17.2,2.2-24.2,6.6c-6.9,4.4-12.3,10.7-16.2,19c-3.8,8.2-5.8,17.9-5.8,29.1c0,17,4.1,30.3,12.2,40s19.4,14.6,33.7,14.6
			c8.9,0,16.5-1.8,22.7-5.3s10.8-8.2,13.7-13.9s4.5-11.9,4.5-18.5v-6.9h-41.6v-8.7h50.3V26z"/>
		<path class="st0" d="M2205.5,43.4h-73.8c0.6,11.4,4,20.3,10.1,26.7s14.3,9.6,24.6,9.6c7.3,0,13.6-1.5,18.9-4.5
			c5.3-3,9.1-7.2,11.4-12.6l7.8,4.1c-3.5,6.8-8.4,12-14.9,15.7c-6.4,3.7-14.2,5.5-23.2,5.5c-13.7,0-24.5-4.3-32.2-12.8
			s-11.6-20.4-11.6-35.5s3.7-26.9,11.2-35.5c7.5-8.5,18-12.8,31.5-12.8c12.6,0,22.5,4.2,29.7,12.6s10.8,19.6,10.8,33.4
			C2205.9,39.4,2205.8,41.5,2205.5,43.4z M2141.6,8.8c-5.8,6.3-9.1,15-9.8,26.3h65.4c-0.6-11.1-3.7-19.9-9.2-26.2s-13-9.5-22.6-9.5
			C2155.3-0.6,2147.4,2.5,2141.6,8.8z"/>
		<path class="st0" d="M2368.9,0c6.5,5.9,9.8,14.5,9.8,25.6v60.2h-9.3V26.5c0-8.9-2.4-15.7-7.2-20.3s-11.3-7-19.5-7
			c-5.9,0-11.4,1.4-16.3,4.3c-4.9,2.9-8.8,6.8-11.7,11.9s-4.4,10.8-4.4,17.1V86h-9.3V26.7c0-8.9-2.4-15.7-7.2-20.3s-11.3-7-19.5-7
			c-5.7,0-11,1.4-16,4.1s-9,6.7-12,11.9s-4.6,11.2-4.6,18V86h-9.3V-6.9h8.4l0.6,18.6c3-6.4,7.5-11.5,13.6-15
			c6.1-3.6,12.8-5.4,20.3-5.4c7.9,0,14.9,1.9,20.8,5.6c5.9,3.7,10.1,9.1,12.4,16.2c2.5-6.8,7-12.2,13.7-16.1
			c6.6-3.9,13.8-5.9,21.6-5.9C2354-9,2362.4-6,2368.9,0z"/>
		<path class="st0" d="M2481.5,4.1c7.9,8.6,11.8,20.4,11.8,35.4s-3.9,26.8-11.8,35.4c-7.9,8.6-18.7,12.9-32.4,12.9
			c-13.8,0-24.6-4.3-32.4-12.9c-7.9-8.6-11.8-20.4-11.8-35.4s3.9-26.8,11.8-35.4c7.9-8.6,18.7-12.9,32.4-12.9S2473.7-4.5,2481.5,4.1
			z M2423.5,10c-6.2,7.2-9.3,17-9.3,29.5s3.1,22.4,9.3,29.5c6.2,7.2,14.7,10.8,25.6,10.8c10.9,0,19.4-3.6,25.6-10.8
			c6.2-7.2,9.3-17,9.3-29.5s-3.1-22.4-9.3-29.5c-6.2-7.2-14.7-10.8-25.6-10.8S2429.6,2.8,2423.5,10z"/>
		<path class="st0" d="M2529,63.5c0,5.7,0.9,9.7,2.7,12.1s4.8,3.5,9,3.5c2.5,0,4.6-0.2,6.3-0.6s3.7-1.1,5.9-2l-1.3,8.9
			c-3.5,1.6-7.6,2.4-12.3,2.4c-6.7,0-11.6-1.9-14.9-5.7c-3.2-3.8-4.8-9.7-4.8-17.7V-49.7h9.3V63.5H2529z"/>
		<path class="st0" d="M2641.3,4.1c7.9,8.6,11.8,20.4,11.8,35.4s-3.9,26.8-11.8,35.4c-7.9,8.6-18.7,12.9-32.4,12.9
			c-13.8,0-24.6-4.3-32.4-12.9c-7.9-8.6-11.8-20.4-11.8-35.4s3.9-26.8,11.8-35.4c7.9-8.6,18.7-12.9,32.4-12.9
			C2622.6-8.8,2633.4-4.5,2641.3,4.1z M2583.2,10c-6.2,7.2-9.3,17-9.3,29.5s3.1,22.4,9.3,29.5c6.2,7.2,14.7,10.8,25.6,10.8
			c10.9,0,19.4-3.6,25.6-10.8c6.2-7.2,9.3-17,9.3-29.5s-3.1-22.4-9.3-29.5c-6.2-7.2-14.7-10.8-25.6-10.8
			C2598-0.8,2589.4,2.8,2583.2,10z"/>
		<path class="st0" d="M2749.7,82.3c5.3,3.8,8,9,8,15.4c0,5.6-1.9,10.5-5.7,14.8s-9,7.6-15.7,9.9c-6.7,2.4-14.3,3.5-22.9,3.5
			c-14,0-24.7-2.3-32.1-6.8c-7.4-4.5-11.1-10.5-11.1-17.9c0-4.8,1.5-9,4.5-12.4c3-3.5,7.1-5.9,12.3-7.4c-3.7-1.6-6.7-3.8-8.8-6.7
			c-2.2-2.8-3.3-6-3.3-9.5c0-4.5,1.5-8.2,4.4-11.3s6.8-5.3,11.8-6.7c-5.1-2.6-9-6.1-11.7-10.5s-4.1-9.4-4.1-15.1
			c0-9.2,3.4-16.5,10.3-22c6.9-5.5,16-8.3,27.4-8.3c7.9,0,14.9,1.4,21,4.3c0.7-5.9,3.2-10.7,7.4-14.2s9.5-5.3,15.8-5.3l2.2,8.2
			c-5.8,0-10.4,1.3-13.7,3.9s-5.3,6.3-5.8,11.1c7.1,5.7,10.6,13.1,10.6,22.3s-3.4,16.5-10.3,22.1c-6.9,5.6-16,8.4-27.2,8.4
			c-3.8,0-8.1-0.4-12.6-1.3c-5.2,0.6-9.3,2.1-12.2,4.6c-2.9,2.4-4.4,5.3-4.4,8.6c0,4,1.7,7.1,5,9.3s8.4,3.3,15,3.3h24
			C2737.1,76.5,2744.4,78.4,2749.7,82.3z M2739.8,112.6c6.4-3.7,9.6-8.3,9.6-13.8c0-4.5-2-8-6-10.5s-9.9-3.8-17.6-3.8h-24
			c-7.1,0-12.7,1.4-16.8,4.2c-4.2,2.8-6.2,6.5-6.2,11.1c0,5.7,3.1,10.2,9.3,13.5s15,4.9,26.4,4.9
			C2724.9,118.1,2733.4,116.3,2739.8,112.6z M2692.1,38c5.1,4.1,12,6.1,20.8,6.1c8.7,0,15.5-2,20.6-6.1s7.6-9.6,7.6-16.5
			s-2.5-12.4-7.6-16.4s-12-6-20.6-6c-8.7,0-15.6,2-20.7,6c-5.1,4-7.7,9.5-7.7,16.4C2684.5,28.4,2687,34,2692.1,38z"/>
		<path class="st0" d="M2805.6,103.1c-3.5,8.4-7.3,14.3-11.5,17.7s-9.5,5.1-16,5.1c-7.7,0-13.6-2.3-17.7-6.9l3.5-8
			c3,4.5,7.7,6.7,14.1,6.7c4.3,0,8-1.2,11.1-3.6c3-2.4,5.9-6.8,8.5-13.3l5.9-14.9l-9.7-23L2764.3-7h10.6l28.4,70.4l4.6,12.4l5-13.4
			l27.3-69.5h10L2805.6,103.1z"/>
		<path class="st0" d="M3006.1,78.5l-0.6,7.4c-2.2,1.2-5.3,1.9-9.1,1.9c-4.3,0-7.9-1.2-10.6-3.5c-2.7-2.4-4.3-6.4-4.6-12.3
			c-2.9,5-7.4,8.8-13.7,11.6s-12.9,4.2-19.9,4.2c-9.2,0-16.5-2-22-6.1s-8.3-9.9-8.3-17.5c0-14.4,11.8-23.7,35.3-27.9l28.4-5v-8.2
			c0-7.4-2.2-13.3-6.6-17.5c-4.4-4.2-10.6-6.3-18.7-6.3C2941-0.7,2931,5.9,2926,19l-7.1-5.2c2.7-7.3,7.2-12.9,13.6-16.8
			s14.1-5.9,23.2-5.9c10.8,0,19.2,2.6,25.4,7.9c6.1,5.3,9.2,12.9,9.2,22.9v47.9c0,6.6,2.8,9.8,8.5,9.8
			C3002,79.8,3004.4,79.4,3006.1,78.5z M2963.8,77c5-1.8,9.1-4.5,12.4-8c3.3-3.5,4.9-7.8,4.9-12.7V39l-25.5,4.6
			c-10,1.9-17.3,4.5-21.9,7.8c-4.6,3.3-6.9,7.6-6.9,12.8c0,5,1.9,8.8,5.8,11.4c3.8,2.7,9.2,4,16,4
			C2953.7,79.7,2958.8,78.8,2963.8,77z"/>
		<path class="st0" d="M3094.3,0.1c6.5,5.9,9.8,14.5,9.8,25.6v60.2h-9.3V28.7c0-9.9-2.4-17.3-7.2-22.1s-11.5-7.2-19.9-7.2
			c-5.9,0-11.5,1.4-16.5,4.1c-5.1,2.7-9.1,6.7-12.2,11.9c-3,5.2-4.6,11.3-4.6,18.2V86h-9.3V-6.9h8.4l0.4,18.8
			c3-6.7,7.5-11.8,13.7-15.3c6.1-3.5,13.2-5.3,21.1-5.3C3079.2-8.8,3087.8-5.8,3094.3,0.1z"/>
		<path class="st0" d="M3216.3-49.7V85.9h-8.4l-0.6-20.8c-2.6,7.1-6.9,12.6-13,16.6s-13.3,6-21.6,6c-13.1,0-23.5-4.3-31.1-12.8
			s-11.4-20.4-11.4-35.5s3.8-26.9,11.4-35.5c7.6-8.5,18-12.8,31.1-12.8c8.1,0,15,1.9,21,5.8c5.9,3.8,10.3,9.1,13.2,15.8v-62.4
			H3216.3z M3197.3,69.9c5.9-6.5,9.2-15.3,9.7-26.5v-7.8c-0.6-11.1-3.9-20-9.8-26.5c-5.9-6.5-13.7-9.8-23.3-9.8
			c-10.8,0-19.2,3.6-25.3,10.7s-9.1,16.9-9.1,29.4s3,22.3,9.1,29.4s14.5,10.7,25.3,10.7C3183.6,79.7,3191.4,76.4,3197.3,69.9z"/>
	</g>
	<g class="st1">
		<path class="st0" d="M2036.7-190.9l-24.5,24.9v41.2h-9.3v-122.6h9.3v68.7l67.3-68.7h12.3l-48.5,49.6l49.8,73h-11.3L2036.7-190.9z"
			/>
		<path class="st0" d="M2183.1-167.3h-73.8c0.6,11.4,4,20.3,10.1,26.7s14.3,9.6,24.6,9.6c7.3,0,13.6-1.5,18.9-4.5
			c5.3-3,9.1-7.2,11.4-12.6l7.8,4.1c-3.5,6.8-8.4,12-14.9,15.7c-6.4,3.7-14.2,5.5-23.2,5.5c-13.7,0-24.5-4.3-32.2-12.8
			s-11.6-20.4-11.6-35.5s3.7-26.9,11.2-35.5c7.5-8.5,18-12.8,31.5-12.8c12.6,0,22.5,4.2,29.7,12.6s10.8,19.6,10.8,33.4
			C2183.4-171.4,2183.3-169.3,2183.1-167.3z M2119.2-202c-5.8,6.3-9.1,15-9.8,26.3h65.4c-0.6-11.1-3.7-19.9-9.2-26.2
			s-13-9.5-22.6-9.5C2132.9-211.4,2125-208.2,2119.2-202z"/>
		<path class="st0" d="M2286.9-167.3h-73.8c0.6,11.4,4,20.3,10.1,26.7s14.3,9.6,24.6,9.6c7.3,0,13.6-1.5,18.9-4.5
			c5.3-3,9.1-7.2,11.4-12.6l7.8,4.1c-3.5,6.8-8.4,12-14.9,15.7c-6.4,3.7-14.2,5.5-23.2,5.5c-13.7,0-24.5-4.3-32.2-12.8
			S2204-156,2204-171.1s3.7-26.9,11.2-35.5c7.5-8.5,18-12.8,31.5-12.8c12.6,0,22.5,4.2,29.7,12.6s10.8,19.6,10.8,33.4
			C2287.3-171.4,2287.2-169.3,2286.9-167.3z M2223-202c-5.8,6.3-9.1,15-9.8,26.3h65.4c-0.6-11.1-3.7-19.9-9.2-26.2s-13-9.5-22.6-9.5
			C2236.8-211.4,2228.8-208.2,2223-202z"/>
		<path class="st0" d="M2383.4-128.5c5.3,3.8,8,9,8,15.4c0,5.6-1.9,10.5-5.7,14.8s-9,7.6-15.7,9.9c-6.7,2.4-14.3,3.5-22.9,3.5
			c-14,0-24.7-2.3-32.1-6.8c-7.4-4.5-11.1-10.5-11.1-17.9c0-4.8,1.5-9,4.5-12.4c3-3.5,7.1-5.9,12.3-7.4c-3.7-1.6-6.7-3.8-8.8-6.7
			c-2.2-2.8-3.3-6-3.3-9.5c0-4.5,1.5-8.2,4.4-11.3s6.8-5.3,11.8-6.7c-5.1-2.6-9-6.1-11.7-10.5s-4.1-9.4-4.1-15.1
			c0-9.2,3.4-16.5,10.3-22c6.9-5.5,16-8.3,27.4-8.3c7.9,0,14.9,1.4,21,4.3c0.7-5.9,3.2-10.7,7.4-14.2s9.5-5.3,15.8-5.3l2.2,8.2
			c-5.8,0-10.4,1.3-13.7,3.9s-5.3,6.3-5.8,11.1c7.1,5.7,10.6,13.1,10.6,22.3s-3.4,16.5-10.3,22.1c-6.9,5.6-16,8.4-27.2,8.4
			c-3.8,0-8.1-0.4-12.6-1.3c-5.2,0.6-9.3,2.1-12.2,4.6c-2.9,2.4-4.4,5.3-4.4,8.6c0,4,1.7,7.1,5,9.3s8.4,3.3,15,3.3h24
			C2370.7-134.3,2378-132.3,2383.4-128.5z M2373.4-98.1c6.4-3.7,9.6-8.3,9.6-13.8c0-4.5-2-8-6-10.5s-9.9-3.8-17.6-3.8h-24
			c-7.1,0-12.7,1.4-16.8,4.2c-4.2,2.8-6.2,6.5-6.2,11.1c0,5.7,3.1,10.2,9.3,13.5s15,4.9,26.4,4.9C2358.6-92.6,2367-94.5,2373.4-98.1
			z M2325.8-172.7c5.1,4.1,12,6.1,20.8,6.1c8.7,0,15.5-2,20.6-6.1s7.6-9.6,7.6-16.5s-2.5-12.4-7.6-16.4s-12-6-20.6-6
			c-8.7,0-15.6,2-20.7,6c-5.1,4-7.7,9.5-7.7,16.4C2318.1-182.3,2320.7-176.8,2325.8-172.7z"/>
		<path class="st0" d="M2491.5-132.2l-0.6,7.4c-2.2,1.2-5.3,1.9-9.1,1.9c-4.3,0-7.9-1.2-10.6-3.5c-2.7-2.4-4.3-6.4-4.6-12.3
			c-2.9,5-7.4,8.8-13.7,11.6c-6.3,2.8-12.9,4.2-19.9,4.2c-9.2,0-16.5-2-22-6.1c-5.5-4.1-8.3-9.9-8.3-17.5
			c0-14.4,11.8-23.7,35.3-27.9l28.4-5v-8.2c0-7.4-2.2-13.3-6.6-17.5c-4.4-4.2-10.6-6.3-18.7-6.3c-14.7,0-24.7,6.6-29.7,19.7
			l-7.1-5.2c2.7-7.3,7.2-12.9,13.6-16.8s14.1-5.9,23.2-5.9c10.8,0,19.2,2.6,25.4,7.9c6.1,5.3,9.2,12.9,9.2,22.9v47.9
			c0,6.6,2.8,9.8,8.5,9.8C2487.3-130.9,2489.8-131.4,2491.5-132.2z M2449.1-133.8c5-1.8,9.1-4.5,12.4-8c3.3-3.5,4.9-7.8,4.9-12.7
			v-17.3l-25.5,4.6c-10,1.9-17.3,4.5-21.9,7.8c-4.6,3.3-6.9,7.6-6.9,12.8c0,5,1.9,8.8,5.8,11.4c3.8,2.7,9.2,4,16,4
			C2439.1-131.1,2444.2-132,2449.1-133.8z"/>
		<path class="st0" d="M2519-147.3c0,5.7,0.9,9.7,2.7,12.1s4.8,3.5,9,3.5c2.5,0,4.6-0.2,6.3-0.6s3.7-1.1,5.9-2l-1.3,8.9
			c-3.5,1.6-7.6,2.4-12.3,2.4c-6.7,0-11.6-1.9-14.9-5.7c-3.2-3.8-4.8-9.7-4.8-17.7v-114.1h9.3v113.2H2519z"/>
	</g>
	<g class="st1">
		<path class="st0" d="M2082.1,305.7l-35.1-53.1h-0.6h-36.2v53.1h-9.3V183.1h45.5c12.3,0,22,3.1,29.3,9.3
			c7.2,6.2,10.9,14.7,10.9,25.5c0,8.9-2.6,16.3-7.8,22.2s-12.3,9.7-21.4,11.4l35.7,54.3L2082.1,305.7L2082.1,305.7z M2010.2,243.8
			h36c9.9,0,17.5-2.2,22.8-6.7s7.9-10.9,7.9-19.3c0-8.4-2.6-14.9-7.9-19.4c-5.3-4.5-12.9-6.8-22.8-6.8h-36V243.8z"/>
		<path class="st0" d="M2191,263.2h-73.8c0.6,11.4,4,20.3,10.1,26.7c6.1,6.4,14.3,9.6,24.6,9.6c7.3,0,13.6-1.5,18.9-4.5
			c5.3-3,9.1-7.2,11.4-12.6l7.8,4.1c-3.5,6.8-8.4,12-14.9,15.7c-6.4,3.7-14.2,5.5-23.2,5.5c-13.7,0-24.5-4.3-32.2-12.8
			s-11.6-20.4-11.6-35.5s3.7-26.9,11.2-35.5c7.5-8.5,18-12.8,31.5-12.8c12.6,0,22.5,4.2,29.7,12.6c7.2,8.4,10.8,19.6,10.8,33.4
			C2191.4,259.1,2191.3,261.2,2191,263.2z M2127.1,228.5c-5.8,6.3-9.1,15-9.8,26.3h65.4c-0.6-11.1-3.7-19.9-9.2-26.2
			s-13-9.5-22.6-9.5C2140.9,219.1,2132.9,222.2,2127.1,228.5z"/>
		<path class="st0" d="M2223.7,302c-6.9-3.7-11.7-9.1-14.3-16.2l7.6-5c1.9,6.2,5.6,10.8,11.3,13.9s12.7,4.6,21,4.6
			c8.4,0,15-1.6,19.8-4.8c4.8-3.2,7.2-7.5,7.2-12.8c0-4.6-2-8.2-6.1-11c-4.1-2.7-11.3-5-21.6-6.9c-13-2.4-22.2-5.5-27.5-9.5
			s-8-9.6-8-16.9c0-4.8,1.5-9.3,4.5-13.4c3-4.1,7.2-7.3,12.6-9.7c5.4-2.4,11.6-3.5,18.6-3.5c9.8,0,17.6,1.9,23.5,5.6
			s9.9,9.4,12.2,17.1l-8,4.6c-3.5-12.8-12.7-19.1-27.7-19.1c-5,0-9.4,0.8-13.5,2.4c-4,1.6-7.2,3.7-9.5,6.4s-3.4,5.5-3.4,8.6
			c0,5.1,2.1,9,6.3,11.9s11.6,5.2,22.3,7.1c12.6,2.1,21.6,5.1,26.8,9.1s7.8,9.5,7.8,16.7c0,7.9-3.4,14.3-10.1,19
			c-6.8,4.8-15.8,7.2-27.2,7.2C2238.8,307.6,2230.7,305.7,2223.7,302z"/>
		<path class="st0" d="M2388.7,263.2h-73.8c0.6,11.4,4,20.3,10.1,26.7c6.1,6.4,14.3,9.6,24.6,9.6c7.3,0,13.6-1.5,18.9-4.5
			c5.3-3,9.1-7.2,11.4-12.6l7.8,4.1c-3.5,6.8-8.4,12-14.9,15.7c-6.4,3.7-14.2,5.5-23.2,5.5c-13.7,0-24.5-4.3-32.2-12.8
			s-11.6-20.4-11.6-35.5s3.7-26.9,11.2-35.5c7.5-8.5,18-12.8,31.5-12.8c12.6,0,22.5,4.2,29.7,12.6c7.2,8.4,10.8,19.6,10.8,33.4
			C2389.1,259.1,2389,261.2,2388.7,263.2z M2324.8,228.5c-5.8,6.3-9.1,15-9.8,26.3h65.4c-0.6-11.1-3.7-19.9-9.2-26.2
			s-13-9.5-22.6-9.5C2338.5,219.1,2330.6,222.2,2324.8,228.5z"/>
		<path class="st0" d="M2497.6,298.3l-0.6,7.4c-2.2,1.2-5.3,1.9-9.1,1.9c-4.3,0-7.9-1.2-10.6-3.5c-2.7-2.4-4.3-6.4-4.6-12.3
			c-2.9,5-7.4,8.8-13.7,11.6c-6.3,2.8-12.9,4.2-19.9,4.2c-9.2,0-16.5-2-22-6.1s-8.3-9.9-8.3-17.5c0-14.4,11.8-23.7,35.3-27.9l28.4-5
			v-8.2c0-7.4-2.2-13.3-6.6-17.5c-4.4-4.2-10.6-6.3-18.7-6.3c-14.7,0-24.7,6.6-29.7,19.7l-7.1-5.2c2.7-7.3,7.2-12.9,13.6-16.8
			c6.4-3.9,14.1-5.9,23.2-5.9c10.8,0,19.2,2.6,25.4,7.9c6.1,5.3,9.2,12.9,9.2,22.9v47.9c0,6.6,2.8,9.8,8.5,9.8
			C2493.4,299.6,2495.9,299.1,2497.6,298.3z M2455.2,296.7c5-1.8,9.1-4.5,12.4-8c3.3-3.5,4.9-7.8,4.9-12.7v-17.3l-25.5,4.6
			c-10,1.9-17.3,4.5-21.9,7.8c-4.6,3.3-6.9,7.6-6.9,12.8c0,5,1.9,8.8,5.8,11.4c3.8,2.7,9.2,4,16,4
			C2445.2,299.4,2450.3,298.5,2455.2,296.7z"/>
		<path class="st0" d="M2567.3,214.1l-2.4,8.7c-2.9-2.2-6.8-3.3-11.9-3.3c-4.7,0-9.1,1.5-13.3,4.4s-7.5,7-10,12.3
			s-3.8,11.1-3.8,17.6v52h-9.3v-92.9h7.8l1.1,19c2.6-6.6,6.5-11.7,11.6-15.3c5.1-3.7,11.3-5.5,18.5-5.5
			C2560.5,210.9,2564.4,212,2567.3,214.1z"/>
		<path class="st0" d="M2643.9,217.5c6.5,4.4,11.2,10.6,14,18.5l-8.7,4.1c-2.1-6.8-5.6-12-10.6-15.6s-11.1-5.4-18.6-5.4
			c-10.8,0-19.2,3.6-25.3,10.7c-6.1,7.1-9.1,16.9-9.1,29.4c0,12.6,3,22.5,9,29.5c6,7.1,14.4,10.6,25.2,10.6c7.9,0,14.6-2,20.2-5.9
			c5.5-3.9,8.9-9.3,10.1-16.3l8.5,3c-2.5,8.4-7.2,15.1-14,20c-6.9,4.9-15.1,7.3-24.6,7.3c-13.7,0-24.5-4.3-32.1-12.8
			c-7.7-8.5-11.5-20.4-11.5-35.5s3.9-26.9,11.6-35.5c7.7-8.5,18.5-12.8,32.2-12.8C2629.5,210.9,2637.4,213.1,2643.9,217.5z"/>
		<path class="st0" d="M2752.8,219.9c6.5,5.9,9.8,14.4,9.8,25.5v60.4h-9.3v-57.4c0-9.8-2.4-17.1-7.3-22c-4.9-4.9-11.5-7.3-19.8-7.3
			c-5.9,0-11.5,1.4-16.5,4.2c-5.1,2.8-9.1,6.8-12.2,12c-3,5.2-4.6,11.3-4.6,18.2v52.4h-9.3V170.1h9.3v61.1c3-6.6,7.5-11.6,13.5-15
			c6-3.5,12.9-5.2,20.7-5.2C2737.7,210.9,2746.3,213.9,2752.8,219.9z"/>
		<path class="st0" d="M2864.9,305.7h-9.3V183.1h9.3V305.7z"/>
		<path class="st0" d="M2969.4,219.9c6.5,5.9,9.8,14.5,9.8,25.6v60.2h-9.3v-57.2c0-9.9-2.4-17.3-7.2-22.1s-11.5-7.2-19.9-7.2
			c-5.9,0-11.5,1.4-16.5,4.1c-5.1,2.7-9.1,6.7-12.2,11.9c-3,5.2-4.6,11.3-4.6,18.2v52.4h-9.3v-92.9h8.4l0.4,18.8
			c3-6.7,7.5-11.8,13.7-15.3c6.1-3.5,13.2-5.3,21.1-5.3C2954.3,210.9,2962.9,213.9,2969.4,219.9z"/>
		<path class="st0" d="M3017.1,302c-6.9-3.7-11.7-9.1-14.3-16.2l7.6-5c1.9,6.2,5.6,10.8,11.3,13.9s12.7,4.6,21,4.6
			c8.4,0,15-1.6,19.8-4.8c4.8-3.2,7.2-7.5,7.2-12.8c0-4.6-2-8.2-6.1-11c-4.1-2.7-11.3-5-21.6-6.9c-13-2.4-22.2-5.5-27.5-9.5
			s-8-9.6-8-16.9c0-4.8,1.5-9.3,4.5-13.4c3-4.1,7.2-7.3,12.6-9.7c5.4-2.4,11.6-3.5,18.6-3.5c9.8,0,17.6,1.9,23.5,5.6
			s9.9,9.4,12.2,17.1l-8,4.6c-3.5-12.8-12.7-19.1-27.7-19.1c-5,0-9.4,0.8-13.5,2.4c-4,1.6-7.2,3.7-9.5,6.4s-3.4,5.5-3.4,8.6
			c0,5.1,2.1,9,6.3,11.9s11.6,5.2,22.3,7.1c12.6,2.1,21.6,5.1,26.8,9.1s7.8,9.5,7.8,16.7c0,7.9-3.4,14.3-10.1,19
			c-6.8,4.8-15.8,7.2-27.2,7.2C3032.2,307.6,3024,305.7,3017.1,302z"/>
		<path class="st0" d="M3156.4,299.8c-2.5,2.5-5.5,4.4-9.1,5.8s-7.6,2-11.9,2c-7.6,0-13.5-2.1-17.7-6.2c-4.3-4.1-6.4-10.4-6.4-18.9
			v-61.7h-18.6v-8h18.6v-23.2l9.3-2.6v25.8h34.9v8h-34.9v60.4c0,5.8,1.4,10.3,4.2,13.3s6.8,4.6,12.2,4.6c6.2,0,11.6-2.3,16.2-6.9
			L3156.4,299.8z"/>
		<path class="st0" d="M3174.2,192.6c-1.4-1.4-2.1-3.3-2.1-5.7s0.7-4.2,2.1-5.7c1.4-1.4,3.3-2.1,5.7-2.1s4.2,0.7,5.7,2.1
			c1.4,1.4,2.1,3.3,2.1,5.7s-0.7,4.2-2.1,5.7c-1.4,1.4-3.3,2.1-5.7,2.1C3177.5,194.8,3175.6,194.1,3174.2,192.6z M3184.5,305.7h-9.3
			v-92.9h9.3V305.7z"/>
		<path class="st0" d="M3269,299.8c-2.5,2.5-5.5,4.4-9.1,5.8s-7.6,2-11.9,2c-7.6,0-13.5-2.1-17.7-6.2c-4.3-4.1-6.4-10.4-6.4-18.9
			v-61.7h-18.6v-8h18.6v-23.2l9.3-2.6v25.8h34.9v8h-34.9v60.4c0,5.8,1.4,10.3,4.2,13.3s6.8,4.6,12.2,4.6c6.2,0,11.6-2.3,16.2-6.9
			L3269,299.8z"/>
		<path class="st0" d="M3364.9,212.8v92.9h-8.4l-0.4-18.4c-3.1,6.6-7.7,11.6-13.9,15c-6.2,3.5-13.5,5.2-21.9,5.2
			c-10.2,0-18.3-2.8-24.3-8.5c-6.1-5.6-9.1-14-9.1-25v-61.3h9.3v59.1c0,18.3,8.5,27.5,25.6,27.5c6.8,0,12.8-1.5,17.9-4.5
			c5.1-3,9.1-7,11.8-12.1s4.1-10.7,4.1-16.7v-53.3h9.3L3364.9,212.8L3364.9,212.8z"/>
		<path class="st0" d="M3449.3,299.8c-2.5,2.5-5.5,4.4-9.1,5.8s-7.6,2-11.9,2c-7.6,0-13.5-2.1-17.7-6.2c-4.3-4.1-6.4-10.4-6.4-18.9
			v-61.7h-18.6v-8h18.6v-23.2l9.3-2.6v25.8h34.9v8h-34.9v60.4c0,5.8,1.4,10.3,4.2,13.3s6.8,4.6,12.2,4.6c6.2,0,11.6-2.3,16.2-6.9
			L3449.3,299.8z"/>
		<path class="st0" d="M3544.9,263.2h-73.8c0.6,11.4,4,20.3,10.1,26.7c6.1,6.4,14.3,9.6,24.6,9.6c7.3,0,13.6-1.5,18.9-4.5
			c5.3-3,9.1-7.2,11.4-12.6l7.8,4.1c-3.5,6.8-8.4,12-14.9,15.7c-6.4,3.7-14.2,5.5-23.2,5.5c-13.7,0-24.5-4.3-32.2-12.8
			s-11.6-20.4-11.6-35.5s3.7-26.9,11.2-35.5c7.5-8.5,18-12.8,31.5-12.8c12.6,0,22.5,4.2,29.7,12.6c7.2,8.4,10.8,19.6,10.8,33.4
			C3545.3,259.1,3545.2,261.2,3544.9,263.2z M3481,228.5c-5.8,6.3-9.1,15-9.8,26.3h65.4c-0.6-11.1-3.7-19.9-9.2-26.2
			s-13-9.5-22.6-9.5C3494.8,219.1,3486.8,222.2,3481,228.5z"/>
	</g>
</g>
</svg>
